<?xml version="1.0" encoding="UTF-8" standalone="no"?>
<!-- Created with Inkscape (http://www.inkscape.org/) -->

<svg
   width="16"
   height="16"
   viewBox="0 0 16 16"
   version="1.1"
   id="svg5"
   inkscape:version="1.1.1 (3bf5ae0d25, 2021-09-20)"
   sodipodi:docname="sdr-icon.svg"
   xmlns:inkscape="http://www.inkscape.org/namespaces/inkscape"
   xmlns:sodipodi="http://sodipodi.sourceforge.net/DTD/sodipodi-0.dtd"
   xmlns="http://www.w3.org/2000/svg"
   xmlns:svg="http://www.w3.org/2000/svg">
  <style
     id="style2608" />
  <sodipodi:namedview
     id="namedview7"
     pagecolor="#ffffff"
     bordercolor="#666666"
     borderopacity="1.0"
     inkscape:pageshadow="2"
     inkscape:pageopacity="0.0"
     inkscape:pagecheckerboard="true"
     inkscape:document-units="px"
     showgrid="true"
     inkscape:snap-bbox="true"
     inkscape:zoom="90.509668"
     inkscape:cx="9.7669124"
     inkscape:cy="5.7231455"
     inkscape:window-width="3840"
     inkscape:window-height="2054"
     inkscape:window-x="-11"
     inkscape:window-y="-11"
     inkscape:window-maximized="1"
     inkscape:current-layer="g2606"
     inkscape:snap-global="true"
     inkscape:snap-center="true">
    <inkscape:grid
       type="xygrid"
       id="grid824" />
    <inkscape:grid
       type="xygrid"
       id="grid826"
       spacingx="0.5"
       spacingy="0.5"
       visible="false" />
    <inkscape:grid
       type="xygrid"
       id="grid1404"
       spacingx="0.25"
       spacingy="0.25"
       enabled="false" />
  </sodipodi:namedview>
  <defs
     id="defs2" />
  <g
     inkscape:label="Text"
     inkscape:groupmode="layer"
     id="text">
    <g
       id="g2606">
      <path
         id="rect876"
         style="fill:#4d4d4d;stroke-width:0.377953;stroke-linecap:round;stroke-linejoin:round;paint-order:stroke markers fill"
         d="m 6,3 v 9 h 3 l 1,-1 V 4 L 9,3 Z M 7,4 H 8.5 L 9,4.5 v 6 L 8.5,11 H 7 Z"
         sodipodi:nodetypes="cccccccccccccc" />
      <path
         id="path2582"
         style="fill:#4d4d4d;stroke-width:0.377953;stroke-linecap:round;stroke-linejoin:round;paint-order:stroke markers fill"
         d="m 11,3 v 4 1 3.999978 h 1 V 8 h 1.5 L 14,8.5 V 12 l 1,-2.2e-5 V 8.25 L 14.25,7.5 15,6.75 V 4 L 14,3 Z m 1,1 h 1.5 L 14,4.5 v 2 L 13.5,7 H 12 Z"
         sodipodi:nodetypes="ccccccccccccccccccccccc" />
      <path
         id="path2888"
         style="fill:#4d4d4d;stroke-width:0.377953;stroke-linecap:round;stroke-linejoin:round;paint-order:stroke markers fill"
         d="M 4,12 5,11 V 8 L 4,7 H 2.5 v 1 h 1 L 4,8.5 v 2 L 3.5,11 H 1 v 1 z M 2,3 1,4 V 7 L 2,8 H 3.5 V 7 h -1 L 2,6.5 v -2 L 2.5,4 H 5 V 3 Z" />
    </g>
  </g>
</svg>
